<svg width="2200" height="1576" viewBox="0 0 2200 1576" fill="none" xmlns="http://www.w3.org/2000/svg">
<g filter="url(#filter0_di)">
<rect x="80" y="60" width="2000" height="1376" rx="40" fill="white"/>
<rect x="87" y="67" width="1986" height="1362" rx="33" stroke="#FDB515" stroke-width="14"/>
</g>
<path fill-rule="evenodd" clip-rule="evenodd" d="M1538.92 512.934C1543.73 512.934 1547.62 509.047 1547.62 504.252C1547.62 499.458 1543.73 495.571 1538.92 495.571C1534.11 495.571 1530.21 499.458 1530.21 504.252C1530.21 509.047 1534.11 512.934 1538.92 512.934Z" fill="#F34213"/>
<path fill-rule="evenodd" clip-rule="evenodd" d="M1715.94 512.934C1720.75 512.934 1724.65 509.047 1724.65 504.252C1724.65 499.458 1720.75 495.571 1715.94 495.571C1711.14 495.571 1707.24 499.458 1707.24 504.252C1707.24 509.047 1711.14 512.934 1715.94 512.934Z" fill="#0496FF"/>
<path fill-rule="evenodd" clip-rule="evenodd" d="M1871.21 512.934C1876.01 512.934 1879.91 509.047 1879.91 504.252C1879.91 499.458 1876.01 495.571 1871.21 495.571C1866.4 495.571 1862.5 499.458 1862.5 504.252C1862.5 509.047 1866.4 512.934 1871.21 512.934Z" fill="#25D366"/>
<path fill-rule="evenodd" clip-rule="evenodd" d="M1463.47 172.184H1560.69C1564.29 172.184 1567.22 175.099 1567.22 178.695C1567.22 182.292 1564.29 185.206 1560.69 185.206H1463.47C1459.86 185.206 1456.94 182.292 1456.94 178.695C1456.94 175.099 1459.86 172.184 1463.47 172.184V172.184Z" fill="#C2DAF0"/>
<path fill-rule="evenodd" clip-rule="evenodd" d="M1911.84 172.184H1952.47C1956.07 172.184 1959 175.099 1959 178.695C1959 182.292 1956.07 185.206 1952.47 185.206H1911.84C1908.23 185.206 1905.31 182.292 1905.31 178.695C1905.31 175.099 1908.23 172.184 1911.84 172.184V172.184Z" fill="#E6ECF0"/>
<path fill-rule="evenodd" clip-rule="evenodd" d="M1712.85 457.227C1646.95 457.227 1593.34 403.677 1593.34 337.856C1593.34 272.035 1646.95 218.487 1712.85 218.487C1717.15 218.487 1720.63 221.963 1720.63 226.25C1720.63 230.537 1717.15 234.013 1712.85 234.013C1655.53 234.013 1608.88 280.597 1608.88 337.856C1608.88 395.114 1655.53 441.699 1712.85 441.699C1744.07 441.699 1773.36 427.87 1793.21 403.757C1795.93 400.448 1800.83 399.967 1804.15 402.69C1807.46 405.414 1807.94 410.307 1805.22 413.619C1782.4 441.333 1748.74 457.227 1712.85 457.227Z" fill="#F34213"/>
<path fill-rule="evenodd" clip-rule="evenodd" d="M1713.34 435.875C1659.49 435.875 1615.69 392.122 1615.69 338.34C1615.69 284.56 1659.49 240.807 1713.34 240.807C1717.63 240.807 1721.11 244.283 1721.11 248.57C1721.11 252.86 1717.63 256.335 1713.34 256.335C1668.07 256.335 1631.23 293.123 1631.23 338.34C1631.23 383.561 1668.07 420.348 1713.34 420.348C1758.61 420.348 1795.45 383.561 1795.45 338.34C1795.45 328.653 1793.77 319.175 1790.48 310.166C1789 306.139 1791.07 301.681 1795.1 300.21C1799.14 298.736 1803.6 300.806 1805.07 304.833C1809 315.554 1810.99 326.829 1810.99 338.34C1810.99 392.122 1767.19 435.875 1713.34 435.875V435.875Z" fill="#0496FF"/>
<path fill-rule="evenodd" clip-rule="evenodd" d="M1712.86 411.129C1672.41 411.129 1639.5 378.259 1639.5 337.856C1639.5 297.454 1672.41 264.585 1712.86 264.585C1717.15 264.585 1720.63 268.06 1720.63 272.348C1720.63 276.638 1717.15 280.113 1712.86 280.113C1680.98 280.113 1655.04 306.017 1655.04 337.856C1655.04 369.697 1680.98 395.603 1712.86 395.603C1744.74 395.603 1770.67 369.697 1770.67 337.856C1770.67 322.003 1764.37 307.217 1752.92 296.225C1749.83 293.253 1749.73 288.337 1752.7 285.248C1755.68 282.153 1760.6 282.059 1763.7 285.03C1778.22 298.978 1786.22 317.739 1786.22 337.856C1786.22 378.259 1753.31 411.129 1712.86 411.129V411.129Z" fill="#25D366"/>
<path fill-rule="evenodd" clip-rule="evenodd" d="M1465.6 689.766H1581.59C1585.89 689.766 1589.38 693.244 1589.38 697.536C1589.38 701.826 1585.89 705.304 1581.59 705.304H1465.6C1461.3 705.304 1457.81 701.826 1457.81 697.536C1457.81 693.244 1461.3 689.766 1465.6 689.766V689.766Z" fill="#C2DAF0"/>
<path fill-rule="evenodd" clip-rule="evenodd" d="M1467.33 717.387H1572.94C1577.24 717.387 1580.73 720.865 1580.73 725.155C1580.73 729.447 1577.24 732.924 1572.94 732.924H1467.33C1463.03 732.924 1459.54 729.447 1459.54 725.155C1459.54 720.865 1463.03 717.387 1467.33 717.387V717.387Z" fill="#E6ECF0"/>
<rect x="1832.62" y="688.906" width="126.38" height="43.1578" rx="4.5" fill="#E6ECF0"/>
<path fill-rule="evenodd" clip-rule="evenodd" d="M1465.6 773.8H1581.59C1585.89 773.8 1589.38 777.279 1589.38 781.57C1589.38 785.86 1585.89 789.339 1581.59 789.339H1465.6C1461.3 789.339 1457.81 785.86 1457.81 781.57C1457.81 777.279 1461.3 773.8 1465.6 773.8V773.8Z" fill="#C2DAF0"/>
<path fill-rule="evenodd" clip-rule="evenodd" d="M1467.33 801.421H1572.94C1577.24 801.421 1580.73 804.9 1580.73 809.19C1580.73 813.481 1577.24 816.958 1572.94 816.958H1467.33C1463.03 816.958 1459.54 813.481 1459.54 809.19C1459.54 804.9 1463.03 801.421 1467.33 801.421V801.421Z" fill="#E6ECF0"/>
<rect x="1832.62" y="772.94" width="126.38" height="43.1578" rx="4.5" fill="#E6ECF0"/>
<path fill-rule="evenodd" clip-rule="evenodd" d="M1465.6 857.835H1581.59C1585.89 857.835 1589.38 861.313 1589.38 865.605C1589.38 869.895 1585.89 873.374 1581.59 873.374H1465.6C1461.3 873.374 1457.81 869.895 1457.81 865.605C1457.81 861.313 1461.3 857.835 1465.6 857.835V857.835Z" fill="#C2DAF0"/>
<path fill-rule="evenodd" clip-rule="evenodd" d="M1467.33 885.455H1572.94C1577.24 885.455 1580.73 888.934 1580.73 893.223C1580.73 897.515 1577.24 900.992 1572.94 900.992H1467.33C1463.03 900.992 1459.54 897.515 1459.54 893.223C1459.54 888.934 1463.03 885.455 1467.33 885.455V885.455Z" fill="#E6ECF0"/>
<rect x="1832.62" y="856.975" width="126.38" height="43.1578" rx="4.5" fill="#E6ECF0"/>
<path fill-rule="evenodd" clip-rule="evenodd" d="M223.59 140H1111.78C1128.1 140 1132.39 149.599 1132.39 161.453C1132.39 173.303 1128.1 182.911 1111.78 182.911H223.59C207.273 182.911 200 173.303 200 161.453C200 149.599 207.273 140 223.59 140Z" fill="#C2DAF0"/>
<path fill-rule="evenodd" clip-rule="evenodd" d="M299.408 294.67H700.83C710.241 294.67 717.872 301.891 717.872 310.797C717.872 319.707 710.241 326.928 700.83 326.928H299.408C289.998 326.928 282.367 319.707 282.367 310.797C282.367 301.891 289.998 294.67 299.408 294.67V294.67Z" fill="#E6ECF0"/>
<path fill-rule="evenodd" clip-rule="evenodd" d="M225.562 336.784C239.68 336.784 251.124 325.953 251.124 312.593C251.124 299.233 239.68 288.402 225.562 288.402C211.445 288.402 200 299.233 200 312.593C200 325.953 211.445 336.784 225.562 336.784Z" fill="#A5B8D0"/>
<path fill-rule="evenodd" clip-rule="evenodd" d="M1323.79 336.784C1337.91 336.784 1349.36 325.953 1349.36 312.593C1349.36 299.232 1337.91 288.401 1323.79 288.401C1309.68 288.401 1298.23 299.232 1298.23 312.593C1298.23 325.953 1309.68 336.784 1323.79 336.784Z" fill="#E6ECF0"/>
<path fill-rule="evenodd" clip-rule="evenodd" d="M299.408 384.268H537.989C547.4 384.268 555.031 391.489 555.031 400.399C555.031 409.305 547.4 416.526 537.989 416.526H299.408C289.998 416.526 282.367 409.305 282.367 400.399C282.367 391.489 289.998 384.268 299.408 384.268V384.268Z" fill="#E6ECF0"/>
<path fill-rule="evenodd" clip-rule="evenodd" d="M225.562 426.381C239.68 426.381 251.124 415.55 251.124 402.19C251.124 388.829 239.68 377.999 225.562 377.999C211.445 377.999 200 388.829 200 402.19C200 415.55 211.445 426.381 225.562 426.381Z" fill="#1D4E89"/>
<path fill-rule="evenodd" clip-rule="evenodd" d="M1323.79 426.381C1337.91 426.381 1349.36 415.55 1349.36 402.19C1349.36 388.829 1337.91 377.999 1323.79 377.999C1309.68 377.999 1298.23 388.829 1298.23 402.19C1298.23 415.55 1309.68 426.381 1323.79 426.381Z" fill="#E6ECF0"/>
<path fill-rule="evenodd" clip-rule="evenodd" d="M299.408 470.28H628.877C638.288 470.28 645.919 477.498 645.919 486.407C645.919 495.313 638.288 502.535 628.877 502.535H299.408C289.998 502.535 282.367 495.313 282.367 486.407C282.367 477.498 289.998 470.28 299.408 470.28V470.28Z" fill="#E6ECF0"/>
<path fill-rule="evenodd" clip-rule="evenodd" d="M225.562 512.395C239.68 512.395 251.124 501.564 251.124 488.203C251.124 474.843 239.68 464.012 225.562 464.012C211.445 464.012 200 474.843 200 488.203C200 501.564 211.445 512.395 225.562 512.395Z" fill="#0496FF"/>
<path fill-rule="evenodd" clip-rule="evenodd" d="M1323.79 512.394C1337.91 512.394 1349.36 501.563 1349.36 488.202C1349.36 474.842 1337.91 464.011 1323.79 464.011C1309.68 464.011 1298.23 474.842 1298.23 488.202C1298.23 501.563 1309.68 512.394 1323.79 512.394Z" fill="#E6ECF0"/>
<path fill-rule="evenodd" clip-rule="evenodd" d="M299.408 563.461H594.794C604.205 563.461 611.836 570.683 611.836 579.592C611.836 588.498 604.205 595.72 594.794 595.72H299.408C289.998 595.72 282.367 588.498 282.367 579.592C282.367 570.683 289.998 563.461 299.408 563.461V563.461Z" fill="#E6ECF0"/>
<path fill-rule="evenodd" clip-rule="evenodd" d="M225.562 605.576C239.68 605.576 251.124 594.745 251.124 581.385C251.124 568.024 239.68 557.193 225.562 557.193C211.445 557.193 200 568.024 200 581.385C200 594.745 211.445 605.576 225.562 605.576Z" fill="#25D366"/>
<path fill-rule="evenodd" clip-rule="evenodd" d="M1323.79 605.575C1337.91 605.575 1349.36 594.744 1349.36 581.384C1349.36 568.024 1337.91 557.193 1323.79 557.193C1309.68 557.193 1298.23 568.024 1298.23 581.384C1298.23 594.744 1309.68 605.575 1323.79 605.575Z" fill="#E6ECF0"/>
<path fill-rule="evenodd" clip-rule="evenodd" d="M203.59 1251.18C203.59 1251.18 773.553 1250.51 990.296 1007.04C1183.43 790.084 1345.77 742.545 1345.77 742.545V1332.56C1345.77 1345.4 1335.33 1355.82 1322.46 1355.82H226.9C214.027 1355.82 203.59 1345.4 203.59 1332.56V1251.18V1251.18Z" fill="#F34213"/>
<path fill-rule="evenodd" clip-rule="evenodd" d="M203.59 840.884C203.59 840.884 546.375 838.638 779.06 1031.43C1124.32 1317.51 1345.77 1219.08 1345.77 1219.08V1332.54C1345.77 1345.39 1335.33 1355.82 1322.46 1355.82H226.9C214.027 1355.82 203.59 1345.39 203.59 1332.54V840.884Z" fill="#0496FF"/>
<path fill-rule="evenodd" clip-rule="evenodd" d="M203.59 1155.51C203.59 1155.51 480.735 1105.64 734.384 1205.43C1012.31 1314.76 1345.77 1262.92 1345.77 1262.92V1332.59C1345.77 1345.42 1335.33 1355.82 1322.46 1355.82H226.9C214.027 1355.82 203.59 1345.42 203.59 1332.59V1155.51V1155.51Z" fill="#25D366"/>
<rect x="1456.94" y="1211.08" width="71.2103" height="144.383" rx="4.5" fill="#C2DAF0"/>
<path fill-rule="evenodd" clip-rule="evenodd" d="M1491.21 1161.37C1498.5 1161.37 1504.41 1155.54 1504.41 1148.35C1504.41 1141.16 1498.5 1135.33 1491.21 1135.33C1483.92 1135.33 1478.01 1141.16 1478.01 1148.35C1478.01 1155.54 1483.92 1161.37 1491.21 1161.37Z" fill="#1D4E89"/>
<path fill-rule="evenodd" clip-rule="evenodd" d="M1493.88 1225.43C1501.17 1225.43 1507.08 1219.53 1507.08 1212.26C1507.08 1204.99 1501.17 1199.09 1493.88 1199.09C1486.58 1199.09 1480.67 1204.99 1480.67 1212.26C1480.67 1219.53 1486.58 1225.43 1493.88 1225.43Z" fill="#25D366"/>
<rect x="1544.77" y="1265.52" width="71.2103" height="92.3103" rx="4.5" fill="#C2DAF0"/>
<path fill-rule="evenodd" clip-rule="evenodd" d="M1576.66 1114.03C1583.96 1114.03 1589.87 1108.2 1589.87 1101.01C1589.87 1093.82 1583.96 1088 1576.66 1088C1569.37 1088 1563.46 1093.82 1563.46 1101.01C1563.46 1108.2 1569.37 1114.03 1576.66 1114.03Z" fill="#1D4E89"/>
<path fill-rule="evenodd" clip-rule="evenodd" d="M1579.34 1277.5C1586.63 1277.5 1592.54 1271.61 1592.54 1264.33C1592.54 1257.06 1586.63 1251.17 1579.34 1251.17C1572.04 1251.17 1566.13 1257.06 1566.13 1264.33C1566.13 1271.61 1572.04 1277.5 1579.34 1277.5Z" fill="#25D366"/>
<rect x="1627.84" y="1244.21" width="71.2103" height="111.246" rx="4.5" fill="#C2DAF0"/>
<path fill-rule="evenodd" clip-rule="evenodd" d="M1662.11 1161.37C1669.41 1161.37 1675.32 1155.54 1675.32 1148.35C1675.32 1141.16 1669.41 1135.33 1662.11 1135.33C1654.82 1135.33 1648.91 1141.16 1648.91 1148.35C1648.91 1155.54 1654.82 1161.37 1662.11 1161.37Z" fill="#1D4E89"/>
<path fill-rule="evenodd" clip-rule="evenodd" d="M1664.78 1256.2C1672.07 1256.2 1677.98 1250.3 1677.98 1243.03C1677.98 1235.76 1672.07 1229.86 1664.78 1229.86C1657.49 1229.86 1651.58 1235.76 1651.58 1243.03C1651.58 1250.3 1657.49 1256.2 1664.78 1256.2Z" fill="#25D366"/>
<rect x="1713.29" y="1301.02" width="71.2103" height="54.4394" rx="4.5" fill="#C2DAF0"/>
<path fill-rule="evenodd" clip-rule="evenodd" d="M1747.57 1083.26C1754.86 1083.26 1760.77 1077.43 1760.77 1070.24C1760.77 1063.05 1754.86 1057.23 1747.57 1057.23C1740.27 1057.23 1734.36 1063.05 1734.36 1070.24C1734.36 1077.43 1740.27 1083.26 1747.57 1083.26Z" fill="#0496FF"/>
<path fill-rule="evenodd" clip-rule="evenodd" d="M1750.23 1315.37C1757.53 1315.37 1763.44 1309.48 1763.44 1302.2C1763.44 1294.93 1757.53 1289.04 1750.23 1289.04C1742.94 1289.04 1737.03 1294.93 1737.03 1302.2C1737.03 1309.48 1742.94 1315.37 1750.23 1315.37Z" fill="#25D366"/>
<rect x="1798.75" y="1260.78" width="71.2103" height="97.0441" rx="4.5" fill="#C2DAF0"/>
<path fill-rule="evenodd" clip-rule="evenodd" d="M1833.02 1116.4C1840.31 1116.4 1846.22 1110.57 1846.22 1103.38C1846.22 1096.19 1840.31 1090.36 1833.02 1090.36C1825.73 1090.36 1819.81 1096.19 1819.81 1103.38C1819.81 1110.57 1825.73 1116.4 1833.02 1116.4Z" fill="#0496FF"/>
<path fill-rule="evenodd" clip-rule="evenodd" d="M1835.69 1272.77C1842.98 1272.77 1848.89 1266.87 1848.89 1259.6C1848.89 1252.33 1842.98 1246.43 1835.69 1246.43C1828.39 1246.43 1822.48 1252.33 1822.48 1259.6C1822.48 1266.87 1828.39 1272.77 1835.69 1272.77Z" fill="#25D366"/>
<rect x="1884.2" y="1211.08" width="71.2103" height="144.383" rx="4.5" fill="#C2DAF0"/>
<path fill-rule="evenodd" clip-rule="evenodd" d="M1918.47 1161.37C1925.76 1161.37 1931.67 1155.54 1931.67 1148.35C1931.67 1141.16 1925.76 1135.33 1918.47 1135.33C1911.17 1135.33 1905.26 1141.16 1905.26 1148.35C1905.26 1155.54 1911.17 1161.37 1918.47 1161.37Z" fill="#0496FF"/>
<path fill-rule="evenodd" clip-rule="evenodd" d="M1921.14 1225.43C1928.43 1225.43 1934.34 1219.53 1934.34 1212.26C1934.34 1204.99 1928.43 1199.09 1921.14 1199.09C1913.84 1199.09 1907.93 1204.99 1907.93 1212.26C1907.93 1219.53 1913.84 1225.43 1921.14 1225.43Z" fill="#25D366"/>
<defs>
<filter id="filter0_di" x="0" y="0" width="2200" height="1576" filterUnits="userSpaceOnUse" color-interpolation-filters="sRGB">
<feFlood flood-opacity="0" result="BackgroundImageFix"/>
<feColorMatrix in="SourceAlpha" type="matrix" values="0 0 0 0 0 0 0 0 0 0 0 0 0 0 0 0 0 0 127 0"/>
<feOffset dx="20" dy="40"/>
<feGaussianBlur stdDeviation="50"/>
<feColorMatrix type="matrix" values="0 0 0 0 0 0 0 0 0 0 0 0 0 0 0 0 0 0 0.1 0"/>
<feBlend mode="normal" in2="BackgroundImageFix" result="effect1_dropShadow"/>
<feBlend mode="normal" in="SourceGraphic" in2="effect1_dropShadow" result="shape"/>
<feColorMatrix in="SourceAlpha" type="matrix" values="0 0 0 0 0 0 0 0 0 0 0 0 0 0 0 0 0 0 127 0" result="hardAlpha"/>
<feOffset dx="1" dy="1"/>
<feGaussianBlur stdDeviation="15"/>
<feComposite in2="hardAlpha" operator="arithmetic" k2="-1" k3="1"/>
<feColorMatrix type="matrix" values="0 0 0 0 0 0 0 0 0 0 0 0 0 0 0 0 0 0 0.6 0"/>
<feBlend mode="normal" in2="shape" result="effect2_innerShadow"/>
</filter>
</defs>
</svg>
