<svg width="87" height="60" viewBox="0 0 87 60" fill="none" xmlns="http://www.w3.org/2000/svg">
<path d="M85.3119 26.9157L59.574 1.17775C58.0038 -0.392584 55.4568 -0.392584 53.8866 1.17775C52.3158 2.74841 52.3158 5.29455 53.8866 6.8652L72.7593 25.7379H4.02156C1.80069 25.7379 0 27.5386 0 29.7594C0 31.98 1.80069 33.7809 4.02156 33.7809H72.7593L53.8872 52.6536C52.3167 54.2244 52.3167 56.7705 53.8872 58.341C54.6723 59.1258 55.7019 59.5191 56.7309 59.5191C57.7602 59.5191 58.7895 59.1258 59.5746 58.341L85.3119 32.6031C86.8827 31.0326 86.8827 28.4864 85.3119 26.9157Z" fill="#FDB515"/>
</svg>
